<?xml version="1.0" encoding="UTF-8"?>
<svg width="1000px" height="324px" viewBox="0 0 1000 324" version="1.1" xmlns="http://www.w3.org/2000/svg">
    <g stroke="none" stroke-width="1" fill="none" fill-rule="evenodd">
        <path d="M651.666667,0.333333333 L348.333333,0.333333333 C156.333333,0.333333333 0.333333333,156.333333 0.333333333,348.333333 C0.333333333,540.333333 156.333333,696.333333 348.333333,696.333333 L651.666667,696.333333 C843.666667,696.333333 999.666667,540.333333 999.666667,348.333333 C999.666667,156.333333 843.666667,0.333333333 651.666667,0.333333333" fill="#1434CB"/>
        <path d="M416.666667,196.666667 L366.666667,486.666667 L450,486.666667 L500,196.666667 L416.666667,196.666667 Z M300,196.666667 L220,400 L208.333333,333.333333 C191.666667,273.333333 141.666667,240 86.6666667,223.333333 L160,486.666667 L246.666667,486.666667 L383.333333,196.666667 L300,196.666667 Z M146.666667,196.666667 L25,196.666667 L23.3333333,203.333333 C120,223.333333 183.333333,280 208.333333,346.666667 L178.333333,240 C173.333333,210 161.666667,200 146.666667,196.666667 Z M733.333333,196.666667 L666.666667,196.666667 C651.666667,196.666667 640,203.333333 635,220 L533.333333,486.666667 L616.666667,486.666667 L630,446.666667 L716.666667,446.666667 L725,486.666667 L800,486.666667 L733.333333,196.666667 Z M650,380 L690,280 L710,380 L650,380 Z" fill="#FFFFFF"/>
    </g>
</svg> 